<svg width="26" height="20" viewBox="0 0 26 20" fill="none" xmlns="http://www.w3.org/2000/svg">
<path d="M20.8217 5.325L20.0737 5.27053L20.0736 5.27066L20.8217 5.325ZM13.7503 5.325L14.4984 5.27159L14.4984 5.27151L13.7503 5.325ZM9.59648 17.6187L10.3238 17.8016L10.3239 17.8013L9.59648 17.6187ZM24.9761 17.6187L24.248 17.7986L24.2481 17.7991L24.9761 17.6187ZM10.0004 6.27806L9.25237 6.22371L9.25237 6.22372L10.0004 6.27806ZM4.32191 6.27806L3.57381 6.33142L3.57381 6.33147L4.32191 6.27806ZM10.0116 13.3391C10.3887 13.5104 10.8333 13.3436 11.0046 12.9665C11.176 12.5894 11.0092 12.1448 10.6321 11.9734L10.3218 12.6563L10.0116 13.3391ZM1.01927 16.0961L0.291897 15.9133L0.291637 15.9143L1.01927 16.0961ZM7.53615 17.55C7.95036 17.55 8.28615 17.2142 8.28615 16.8C8.28615 16.3858 7.95036 16.05 7.53615 16.05V16.8V17.55ZM20.8217 5.325L20.0736 5.27066C19.9382 7.13504 18.566 8.4 17.286 8.4V9.15V9.9C19.531 9.9 21.3912 7.83615 21.5697 5.37934L20.8217 5.325ZM17.286 9.15V8.4C16.0053 8.4 14.6315 7.13481 14.4984 5.27159L13.7503 5.325L13.0023 5.37841C13.1778 7.83744 15.0418 9.9 17.286 9.9V9.15ZM13.7503 5.325L14.4984 5.27151C14.4319 4.34108 14.7234 3.59601 15.2067 3.08494C15.6924 2.57137 16.4137 2.25 17.286 2.25V1.5V0.75C16.0353 0.75 14.9084 1.21727 14.1169 2.05427C13.3229 2.89377 12.9081 4.0612 13.0023 5.37849L13.7503 5.325ZM17.286 1.5V2.25C18.9803 2.25 20.2022 3.50509 20.0737 5.27053L20.8217 5.325L21.5697 5.37947C21.7626 2.73128 19.8378 0.75 17.286 0.75V1.5ZM17.286 12.55V11.8C13.602 11.8 9.82575 13.6266 8.86907 17.436L9.59648 17.6187L10.3239 17.8013C11.0493 14.9127 13.9877 13.3 17.286 13.3V12.55ZM9.59648 17.6187L8.86913 17.4357C8.66273 18.2564 9.18236 19.25 10.2243 19.25V18.5V17.75C10.2316 17.75 10.2505 17.7524 10.2727 17.7644C10.2936 17.7756 10.307 17.7898 10.3143 17.8003C10.3279 17.82 10.3185 17.8226 10.3238 17.8016L9.59648 17.6187ZM10.2243 18.5V19.25H24.3482V18.5V17.75H10.2243V18.5ZM24.3482 18.5V19.25C25.3928 19.25 25.9063 18.2542 25.7041 17.4382L24.9761 17.6187L24.2481 17.7991C24.2537 17.8217 24.244 17.8203 24.2573 17.8008C24.2645 17.7903 24.2781 17.776 24.2993 17.7646C24.3217 17.7525 24.3409 17.75 24.3482 17.75V18.5ZM24.9761 17.6187L25.7042 17.4387C24.7475 13.5683 20.9636 11.8 17.286 11.8V12.55V13.3C20.5919 13.3 23.5226 14.8637 24.248 17.7986L24.9761 17.6187ZM10.0004 6.27806L9.25237 6.22372C9.14822 7.65737 8.08275 8.6125 7.16115 8.6125V9.3625V10.1125C9.05524 10.1125 10.6019 8.34976 10.7484 6.33241L10.0004 6.27806ZM7.16115 9.3625V8.6125C6.23879 8.6125 5.17226 7.65712 5.07 6.22466L4.32191 6.27806L3.57381 6.33147C3.71798 8.35107 5.26784 10.1125 7.16115 10.1125V9.3625ZM4.32191 6.27806L5.07001 6.22471C4.97356 4.87254 5.89145 3.95 7.16115 3.95V3.2V2.45C5.03876 2.45 3.41418 4.0934 3.57381 6.33142L4.32191 6.27806ZM7.16115 3.2V3.95C8.42591 3.95 9.34852 4.90034 9.25237 6.22371L10.0004 6.27806L10.7484 6.33241C10.9083 4.13148 9.28849 2.45 7.16115 2.45V3.2ZM10.3218 12.6563L10.6321 11.9734C9.5406 11.4775 8.36253 11.298 7.16115 11.298V12.048V12.798C8.21725 12.798 9.16914 12.9563 10.0116 13.3391L10.3218 12.6563ZM7.16115 12.048V11.298C4.18277 11.298 1.07993 12.778 0.291898 15.9133L1.01927 16.0961L1.74665 16.2789C2.30324 14.0645 4.56818 12.798 7.16115 12.798V12.048ZM1.01927 16.0961L0.291637 15.9143C0.109119 16.6449 0.571951 17.55 1.52123 17.55V16.8V16.05C1.55178 16.05 1.59163 16.058 1.63167 16.0796C1.67042 16.1005 1.69879 16.1283 1.71738 16.1553C1.75353 16.2078 1.75278 16.2544 1.74691 16.2779L1.01927 16.0961ZM1.52123 16.8V17.55H7.53615V16.8V16.05H1.52123V16.8Z" fill="white"/>
</svg>
