<svg width="26" height="24" viewBox="0 0 26 24" fill="none" xmlns="http://www.w3.org/2000/svg">
<path d="M1 12.0002C1 6.9086 1 4.3634 2.7568 2.7818C4.516 1.2002 7.3432 1.2002 13 1.2002C18.6568 1.2002 21.4852 1.2002 23.242 2.7818C24.9988 4.3634 25 6.9098 25 12.0002C25 17.0906 25 19.637 23.242 21.2186C21.4864 22.8002 18.6568 22.8002 13 22.8002C7.3432 22.8002 4.5148 22.8002 2.7568 21.2186C0.9988 19.637 1 17.0906 1 12.0002Z" stroke="white" stroke-width="1.5" stroke-linecap="round" stroke-linejoin="round"/>
<path d="M4.6001 17.4006C6.0497 14.3034 11.4545 14.1006 13.0001 17.4006M16.6001 9.60059H21.4001M16.6001 14.4006H21.4001M11.2001 9.00059C11.2001 9.63711 10.9472 10.2476 10.4972 10.6976C10.0471 11.1477 9.43662 11.4006 8.8001 11.4006C8.16358 11.4006 7.55313 11.1477 7.10304 10.6976C6.65295 10.2476 6.4001 9.63711 6.4001 9.00059C6.4001 8.36407 6.65295 7.75362 7.10304 7.30353C7.55313 6.85344 8.16358 6.60059 8.8001 6.60059C9.43662 6.60059 10.0471 6.85344 10.4972 7.30353C10.9472 7.75362 11.2001 8.36407 11.2001 9.00059Z" stroke="white" stroke-width="1.5" stroke-linecap="round" stroke-linejoin="round"/>
</svg>
