<svg width="27" height="26" viewBox="0 0 27 26" fill="none" xmlns="http://www.w3.org/2000/svg">
<path d="M11.25 14.2168L19.4561 22.4229C18.548 23.233 17.5221 23.884 16.3711 24.3721C14.9918 24.9569 13.537 25.25 12 25.25C9.95261 25.25 8.07558 24.7475 6.35449 23.7432C4.62761 22.7354 3.26459 21.3724 2.25684 19.6455C1.25248 17.9244 0.75 16.0474 0.75 14C0.75 11.9526 1.25248 10.0756 2.25684 8.35449C3.26459 6.62761 4.62761 5.26459 6.35449 4.25684C7.86326 3.37638 9.49187 2.88119 11.25 2.77246V14.2168ZM26.2236 14.75C26.1432 16.0123 25.8609 17.2182 25.3721 18.3711C24.8843 19.5214 24.2333 20.5465 23.4238 21.4541L16.7314 14.75H26.2236ZM14.75 0.772461C16.5081 0.881185 18.1367 1.37638 19.6455 2.25684C21.3724 3.26459 22.7354 4.62761 23.7432 6.35449C24.6236 7.86324 25.1178 9.4919 25.2266 11.25H14.75V0.772461Z" stroke="white" stroke-width="1.5"/>
</svg>
