<svg width="24" height="24" viewBox="0 0 24 24" fill="none" xmlns="http://www.w3.org/2000/svg">
<path d="M2.99218 16.3417C3.13922 16.7126 3.17195 17.119 3.08618 17.5087L2.02118 20.7987C1.98686 20.9655 1.99574 21.1384 2.04696 21.3008C2.09817 21.4633 2.19004 21.61 2.31385 21.727C2.43765 21.844 2.58929 21.9274 2.75438 21.9693C2.91947 22.0113 3.09254 22.0104 3.25718 21.9667L6.67018 20.9687C7.0379 20.8958 7.41871 20.9276 7.76918 21.0607C9.90457 22.0579 12.3235 22.2689 14.5993 21.6564C16.8751 21.0439 18.8614 19.6473 20.2079 17.7131C21.5543 15.7788 22.1743 13.4311 21.9585 11.0842C21.7427 8.73738 20.7049 6.54216 19.0282 4.88589C17.3516 3.22962 15.1439 2.21873 12.7946 2.03159C10.4452 1.84445 8.10531 2.49308 6.18762 3.86303C4.26993 5.23299 2.89771 7.23624 2.31307 9.51933C1.72843 11.8024 1.96895 14.2186 2.99218 16.3417Z" stroke="black" stroke-width="1.5" stroke-linecap="round" stroke-linejoin="round"/>
</svg>
