<svg width="20" height="20" viewBox="0 0 20 20" fill="none" xmlns="http://www.w3.org/2000/svg">
<path fill-rule="evenodd" clip-rule="evenodd" d="M8.75 16.875C8.75 17.2202 8.47018 17.5 8.125 17.5H3.75C3.05964 17.5 2.5 16.9404 2.5 16.25V3.75C2.5 3.05964 3.05964 2.5 3.75 2.5H8.125C8.47018 2.5 8.75 2.77982 8.75 3.125C8.75 3.47018 8.47018 3.75 8.125 3.75H3.75V16.25H8.125C8.47018 16.25 8.75 16.5298 8.75 16.875ZM17.3172 9.55781L14.1922 6.43281C13.948 6.1886 13.552 6.1886 13.3078 6.43281C13.0636 6.67703 13.0636 7.07297 13.3078 7.31719L15.3664 9.375H8.125C7.77982 9.375 7.5 9.65482 7.5 10C7.5 10.3452 7.77982 10.625 8.125 10.625H15.3664L13.3078 12.6828C13.0636 12.927 13.0636 13.323 13.3078 13.5672C13.552 13.8114 13.948 13.8114 14.1922 13.5672L17.3172 10.4422C17.4345 10.325 17.5005 10.1659 17.5005 10C17.5005 9.83412 17.4345 9.67504 17.3172 9.55781Z" fill="black"/>
</svg>
