<?xml version="1.0" encoding="utf-8"?>
<svg version="1.1" xmlns="http://www.w3.org/2000/svg" viewBox="0 0 256 256">
  <g>
    <path fill="#FFFFFF" d="M243.9,67.2L130.1,181c-2.9,2.8-7.5,2.8-10.4,0l-41.6-41.6l15-15l31.4,31.4L228.9,51.9
    c4.1-4.1,10.7-4.1,14.8,0C248,56.5,248,63.1,243.9,67.2z
    M224.7,201.6c0,16.5-13.4,29.9-30,29.9H55c-16.5,0-30-13.4-30-29.9V54.4
    c0-16.5,13.4-29.9,30-29.9h139.7c16.5,0,30,13.4,30,29.9v87.8l-15,16.3V54.4
    c0-8.3-6.7-15-15-15H55c-8.3,0-15,6.7-15,15v147.2c0,8.3,6.7,15,15,15h139.7
    c8.3,0,15-6.7,15-15v-87.8l15-16.3V201.6z"/>
  </g>
</svg>
