<?xml version="1.0" encoding="UTF-8"?>
<!DOCTYPE svg PUBLIC "-//W3C//DTD SVG 1.1//EN" "http://www.w3.org/Graphics/SVG/1.1/DTD/svg11.dtd">
<!-- Creator: CorelDRAW 2020 (64-Bit) -->
<svg xmlns="http://www.w3.org/2000/svg" xml:space="preserve" width="123.673mm" height="39.9724mm" version="1.1" style="shape-rendering:geometricPrecision; text-rendering:geometricPrecision; image-rendering:optimizeQuality; fill-rule:evenodd; clip-rule:evenodd"
viewBox="0 0 12531.74 4050.4"
 xmlns:xlink="http://www.w3.org/1999/xlink"
 xmlns:xodm="http://www.corel.com/coreldraw/odm/2003">
 <defs>
  <style type="text/css">
   <![CDATA[
    .fil1 {fill:#232D4F}
    .fil0 {fill:#232D4F;fill-rule:nonzero}
   ]]>
  </style>
 </defs>
 <g id="Capa_x0020_1">
  <metadata id="CorelCorpID_0Corel-Layer"/>
  <path class="fil0" d="M11271.35 6.79c203.92,7.54 396.92,27.57 579.45,81.81 107.25,32.36 211.22,74.25 311.92,125.83 242.71,124.34 191.79,134.25 122.25,317.58 -45.96,105.15 -91.92,210.33 -137.86,315.48 -99.63,210.13 -161.57,131.77 -311.96,58.27 -45.49,-22.22 -88.37,-47.04 -133.32,-65.54 -119.62,-49.18 -238.5,-74.03 -356.46,-74.03 -283.37,0 -386.62,46.71 -607.15,272.81 -95.87,97.62 -175.01,230.41 -235.68,396.62 -60.69,166.21 -91.46,362.29 -91.46,588.32 0,895.95 723.92,1352.78 1466.77,854.21 207.95,-139.57 197.08,-222.17 298.18,-46.14l274.52 453.18c65.94,114.22 145.97,149.76 -4.8,280.73 -169.93,147.58 -347.15,254.66 -529.23,329.23 -223.1,91.35 -469.6,137.79 -740.72,137.79 -417.07,0 -959.06,-243.82 -1249.28,-543.08 -338.55,-348.22 -507.41,-837.18 -507.41,-1468.58 0,-608.54 169.72,-1093.09 508.3,-1455.4 304.5,-324.22 871.26,-576.6 1343.92,-559.1z"/>
  <path class="fil0" d="M2625.97 797.12c0,-141.49 50.16,-261.5 151.36,-360.88 100.29,-99.39 221.17,-149.57 363.56,-149.57 146.86,0 269.54,49.27 368.04,146.86 99.38,97.63 148.65,218.54 148.65,363.59 0,145.06 -50.16,267.74 -151.36,368.91 -100.28,101.24 -222.06,152.25 -365.33,152.25 -140.6,0 -261.46,-51.93 -362.67,-154.91 -101.19,-102.98 -152.25,-224.76 -152.25,-366.25zm48.36 3222.45l0 -2311.88c0,-105.1 -11.33,-83.13 99.28,-83.13 208.27,0 416.54,0 624.83,0l123.58 -1.32c68.4,-0.72 87.2,-1.91 87.2,101.3 0,40.15 0,80.29 0,120.46l0 2174.57 -934.9 0z"/>
  <path class="fil1" d="M7635.86 2066.49c0,78.23 22.12,153.35 58.92,220.78 46.66,85.41 132.72,160.12 223.42,196.19 55.35,21.96 105.7,30.16 164.06,33.53 11.68,0.7 15.06,-1.66 24.64,-2.12 89.64,-4.65 158.18,-27.54 231.99,-76.5 20.08,-13.31 30.22,-22.02 47.23,-37.13 51.58,-45.84 76.91,-82.69 108.16,-144.85 27.38,-54.43 42.49,-121.17 42.49,-196.09 0,-82.47 -23.84,-153.89 -58.21,-215.38 -20.97,-37.46 -41.49,-64.36 -71.86,-94.72 -9.45,-9.46 -16.64,-17.66 -27.44,-26.06 -43.88,-34.33 -48.94,-39.43 -100.95,-65.64 -22.47,-11.39 -54.78,-22.63 -81.7,-29.39 -31.35,-7.78 -63.57,-12.24 -95.91,-13.12l-26.73 0c-32.31,0.88 -64.52,5.34 -95.87,13.16 -16.72,4.17 -27.3,7.69 -42.73,12.77 -15.76,5.19 -24.93,10.05 -39.47,16.04 -12.9,5.34 -24.88,12.47 -36.25,19.32 -22.1,13.18 -60.88,40.2 -79.36,58.47 -67.38,66.66 -109.89,134.33 -132.58,229.47 -6.1,25.71 -11.86,73.68 -11.86,101.27zm2142.22 1127.12c-67.19,93.01 -143.29,181.15 -228.23,264.53 -196.82,189.64 -421.49,335.21 -674,438.57 -252.53,102.44 -514.96,153.69 -786.38,153.69 -275.89,0 -540.09,-51.24 -791.73,-153.69 -251.61,-103.36 -472.68,-248.93 -664.13,-438.57 -198.6,-191.41 -348.68,-408.89 -452.03,-653.31 -102.44,-243.55 -153.67,-502.39 -153.67,-776.46 0,-275.92 51.22,-534.74 153.67,-778.28 103.36,-242.63 253.44,-460.13 452.03,-651.54 191.44,-189.62 412.51,-335.21 664.13,-438.55 251.64,-102.46 515.84,-153.69 791.73,-153.69 273.21,0 537.42,51.22 790.87,153.69 253.42,103.34 476.29,248.93 669.51,438.55 98.03,96.23 184.27,199.38 258.94,309.6 305.55,507.98 640.5,1307.19 -30.71,2285.46zm-2367.33 -159.29c-319.15,-212.71 -529.17,-574.1 -529.17,-984.15 0,-654.38 534.84,-1184.84 1194.58,-1184.84 659.74,0 1194.58,530.46 1194.58,1184.84 0,397.35 -197.21,749 -499.82,963.94 -9.94,-15.15 -20.45,-28.31 -32.44,-43.15 -5.24,-6.52 -10.7,-10.28 -16.18,-16.8 -12.03,-14.39 -27.42,-28.52 -42.01,-40.2l-27.34 -22.04c-7.22,-5.46 -11.88,-8.78 -19.33,-13.68 -21.25,-14.05 -36.81,-25.1 -60.72,-37.92 -114.49,-61.67 -250.13,-99.49 -384.19,-109.62 -43.26,-3.27 -81.61,-5.72 -123.43,-2.3 -10.42,0.87 -22.21,-0.44 -32.81,0.08 -8.58,0.52 -6.83,1.39 -14.5,1.99 -63.53,4.9 -95.06,8.65 -158.8,22.23 -57.7,12.25 -143.73,39.41 -197.02,66.31 -87.23,44.04 -163.06,92.36 -223.04,171.92 -9.25,12.29 -20.23,26.68 -28.35,43.38z"/>
  <path class="fil0" d="M4456.96 2894.44c88.76,77.51 174.41,143.35 260.87,193.18 151.2,87.1 301.79,130.73 452.21,130.73 139.7,0 255.23,-37.59 344.77,-112.83 90.45,-75.21 135.21,-170.12 135.21,-285.64 0,-127.15 -38.51,-225.66 -116.42,-294.62 -77.9,-68.97 -253.43,-140.59 -527.43,-214.02 -376.11,-101.19 -642.96,-233.72 -798.78,-395.8 -155.78,-162.97 -233.7,-385.95 -233.7,-668.92 0,-368.05 122.68,-667.13 368.93,-899.05 245.38,-231.92 565.04,-347.45 956.37,-347.45 212.23,0 412.81,28.66 602.65,85.09 111.54,33.65 219.68,77.23 324.43,130.86 252.4,129.32 199.47,139.64 127.14,330.29 -47.78,109.38 -95.57,218.75 -143.35,328.14 -103.63,218.52 -168.06,137.04 -324.47,60.6 -47.32,-23.13 -91.92,-48.94 -138.68,-68.16 -124.39,-51.15 -248.03,-77 -370.71,-77 -125.38,0 -227.46,30.45 -306.26,90.44 -78.8,60 -118.21,137.91 -118.21,231.94 0,95.81 34.02,172.81 102.98,231.02 68.95,57.29 202.38,112.83 399.37,164.78l47.48 13.42c427.15,115.52 708.33,241.78 842.65,380.57 91.32,94.02 160.29,207.76 207.76,339.4 47.46,132.51 70.73,278.46 70.73,439.68 0,407.43 -133.4,735.18 -401.16,982.3 -267.76,248.07 -625.05,371.65 -1070.98,371.65 -267.79,0 -511.27,-45.89 -731.63,-136.12 -179.84,-73.64 -354.88,-179.39 -522.71,-325.19 -148.91,-129.36 -69.86,-164.45 -4.75,-277.25l271.15 -447.6c99.86,-173.89 108.17,-117.12 294.53,45.57z"/>
  <path class="fil0" d="M645.84 2894.44c88.76,77.51 174.41,143.35 260.87,193.18 151.2,87.1 301.79,130.73 452.21,130.73 139.7,0 255.23,-37.59 344.77,-112.83 90.45,-75.21 135.21,-170.12 135.21,-285.64 0,-127.15 -38.51,-225.66 -116.42,-294.62 -77.9,-68.97 -253.43,-140.59 -527.43,-214.02 -376.11,-101.19 -642.96,-233.72 -798.78,-395.8 -155.78,-162.97 -233.7,-385.95 -233.7,-668.92 0,-368.05 122.68,-667.13 368.93,-899.05 245.38,-231.92 565.04,-347.45 956.37,-347.45 212.23,0 412.81,28.66 602.65,85.09 111.54,33.65 219.68,77.23 324.43,130.86 252.4,129.32 199.47,139.64 127.14,330.29 -47.78,109.38 -95.57,218.75 -143.35,328.14 -103.63,218.52 -168.06,137.04 -324.47,60.6 -47.32,-23.13 -91.92,-48.94 -138.67,-68.16 -124.4,-51.15 -248.04,-77 -370.72,-77 -125.38,0 -227.46,30.45 -306.26,90.44 -78.8,60 -118.21,137.91 -118.21,231.94 0,95.81 34.02,172.81 102.98,231.02 68.95,57.29 202.38,112.83 399.37,164.78l47.48 13.42c427.15,115.52 708.33,241.78 842.65,380.57 91.33,94.02 160.29,207.76 207.76,339.4 47.46,132.51 70.73,278.46 70.73,439.68 0,407.43 -133.4,735.18 -401.16,982.3 -267.76,248.07 -625.05,371.65 -1070.98,371.65 -267.79,0 -511.27,-45.89 -731.63,-136.12 -179.84,-73.64 -354.88,-179.39 -522.71,-325.19 -148.91,-129.36 -69.86,-164.45 -4.75,-277.25l271.15 -447.6c99.86,-173.89 108.17,-117.12 294.53,45.57z"/>
 </g>
</svg>
